# xmcd
#
# Track frame offsets:
#	150
#	11852
#	26856
#	39228
#	52469
#	67623
#	76673
#	88918
#	104797
#	119001
#	129749
#	144503
#	156617
#	163210
#	173472
#	188017
#	205205
#
# Disc length: 2817 seconds
# Revision: 0
# Processed by: cddbd v1.5.2PL0 Copyright (c) Steve Scherf et al.
# Submitted via: dBpowerAMP V12.0
#
DISCID=f60aff11
DTITLE=Various Artist - Epilog: John Duffey Tribute
DYEAR=2018
DGENRE=Bluegrass
TTITLE0=Randy Waller and Lou Reid - Sad and Lonesome Day
TTITLE1=Amanda Smith - If That's The Way You Feel
TTITLE2=Jonathan Edwards - If I Were a Carpenter
TTITLE3=Dudley Connell - Lonesome River
TTITLE4=Sam Bush and Bela Fleck - Sunrise
TTITLE5=James King - Going to the Races
TTITLE6=John Cowan - Some Old Day
TTITLE7=Steve Gulley - Girl From the North Country
TTITLE8=Dusley Connell with John Cowan - He Was a Friend of Mine
TTITLE9=Tim O'Brien - Poor Ellen Smith
TTITLE10=Fred Travers - Reason For Being
TTITLE11=Don Rigsby - Ain't Gonna Work Tomorrow
TTITLE12=Bruce Molsky - Chim-Chim-Cher-Ee
TTITLE13=Ronnie Bowman and Lou Reid - Cold Wind a Blowin'
TTITLE14=John Duffey Tribute All-Stars - Christmas Time Back Home
TTITLE15=John Starling - Bringing Mary Home
TTITLE16=Akira Otsuka - First Tear
EXTD=
EXTT0=
EXTT1=
EXTT2=
EXTT3=
EXTT4=
EXTT5=
EXTT6=
EXTT7=
EXTT8=
EXTT9=
EXTT10=
EXTT11=
EXTT12=
EXTT13=
EXTT14=
EXTT15=
EXTT16=
PLAYORDER=
